<svg width="16" height="22" viewBox="0 0 16 22" fill="none" xmlns="http://www.w3.org/2000/svg">
<rect x="0.5" y="6.39478" width="15" height="14.1579" rx="1.5" stroke="white"/>
<path fill-rule="evenodd" clip-rule="evenodd" d="M12.6667 4.78623C12.6667 2.14435 10.5751 0 8.00004 0C5.42276 0 3.33337 2.14253 3.33337 4.78623V10.2632C3.33337 10.641 3.63185 10.9474 4.00004 10.9474C4.36823 10.9474 4.66671 10.641 4.66671 10.2632V4.78623C4.66671 2.89855 6.15889 1.36842 8.00004 1.36842C9.83902 1.36842 11.3334 2.90044 11.3334 4.78623V10.2632C11.3334 10.641 11.6319 10.9474 12 10.9474C12.3682 10.9474 12.6667 10.641 12.6667 10.2632V4.78623Z" fill="white"/>
<rect x="1" y="17" width="14" height="1" fill="white"/>
</svg>
