<svg width="17" height="21" viewBox="0 0 17 21" fill="none" xmlns="http://www.w3.org/2000/svg">
<path d="M16.264 15.94C16.2573 15.9093 16.2499 15.8787 16.2416 15.8484C16.1508 15.5147 15.9642 15.2091 15.7003 14.9724C15.2635 14.5805 15.0129 14.0248 15.0129 13.4478V8.87127C15.0129 6.28033 13.5136 4.02706 11.3218 2.90195L11.3235 2.9006C11.2081 2.84155 11.0911 2.78583 10.9727 2.73343C10.8886 2.6962 10.8034 2.66135 10.7179 2.62753C10.7031 2.62167 10.6884 2.61601 10.6736 2.61026C10.639 2.59688 10.6044 2.58337 10.5696 2.5705C10.5175 2.55121 10.4651 2.5326 10.4124 2.5145C10.4002 2.5103 10.3879 2.5063 10.3756 2.50218C10.3229 2.4844 10.2698 2.46729 10.2165 2.45074C10.2106 2.44892 10.2046 2.44706 10.1987 2.44523C9.94204 2.36638 9.67915 2.30159 9.41065 2.25252C9.42623 2.2286 9.44072 2.20397 9.45492 2.17917C9.45751 2.17466 9.46045 2.17034 9.463 2.16579C9.47555 2.14325 9.48697 2.12004 9.49835 2.0968C9.50202 2.08935 9.50618 2.08218 9.50969 2.07466C9.5199 2.05288 9.5289 2.03046 9.53806 2.00812C9.54189 1.99874 9.54633 1.98959 9.55001 1.98012C9.5588 1.95727 9.56631 1.93387 9.57398 1.91046C9.57705 1.90107 9.58072 1.89193 9.58362 1.88242C9.59069 1.85921 9.59642 1.83549 9.60231 1.81181C9.60481 1.80175 9.60796 1.79193 9.61026 1.78179C9.61563 1.75798 9.61966 1.73371 9.62382 1.70947C9.6256 1.69909 9.62806 1.68895 9.62963 1.67854C9.63359 1.65216 9.63613 1.62531 9.63859 1.5985C9.6394 1.58994 9.64081 1.58155 9.64146 1.57291C9.64412 1.53735 9.64545 1.50143 9.64545 1.46519C9.64545 1.13695 9.53491 0.833586 9.34842 0.589031C9.3054 0.532595 9.2583 0.479288 9.20761 0.429546C9.15693 0.379803 9.1026 0.333585 9.0451 0.291367C8.93008 0.206892 8.80231 0.138297 8.66513 0.0889507C8.59656 0.0642774 8.52562 0.0443962 8.45281 0.029703C8.35563 0.0102575 8.2551 0 8.15219 0C8.04928 0 7.94875 0.0102575 7.85165 0.0298219C7.7788 0.0444754 7.70789 0.0643566 7.63933 0.0890695C7.50215 0.138456 7.37438 0.20705 7.25936 0.291486C7.20185 0.333704 7.14753 0.379922 7.09684 0.429664C7.04615 0.479407 6.99906 0.532714 6.95604 0.58915C6.76955 0.833705 6.65901 1.13707 6.65901 1.46531C6.65901 1.50155 6.66038 1.53747 6.663 1.57303C6.66365 1.58163 6.66506 1.59002 6.66587 1.59862C6.66837 1.62543 6.67087 1.65228 6.67483 1.67866C6.6764 1.68907 6.67882 1.69921 6.68064 1.70959C6.68484 1.73383 6.68883 1.7581 6.6942 1.78191C6.6965 1.79204 6.69965 1.80187 6.70215 1.81193C6.70804 1.83561 6.71377 1.85933 6.72083 1.88254C6.7237 1.892 6.72737 1.90115 6.73048 1.91058C6.73811 1.93395 6.74565 1.95739 6.75445 1.98024C6.75796 1.98931 6.7622 1.99802 6.76583 2.00701C6.77511 2.02979 6.78432 2.0526 6.79473 2.07482C6.79771 2.08119 6.80127 2.08729 6.80437 2.09363C6.81624 2.11803 6.82827 2.1423 6.84146 2.16595C6.84352 2.16963 6.8459 2.17307 6.84796 2.17672C6.86261 2.20242 6.87766 2.22789 6.89376 2.25264C6.62523 2.30167 6.36234 2.3665 6.10571 2.44535C6.09977 2.44717 6.09388 2.44904 6.08799 2.45086C6.03468 2.46741 5.98165 2.48452 5.92886 2.5023C5.91659 2.50642 5.90424 2.51042 5.89201 2.51458C5.83935 2.53268 5.78692 2.55129 5.73482 2.57058C5.70003 2.58341 5.66549 2.59692 5.6309 2.6103C5.61609 2.61605 5.60128 2.62175 5.58655 2.62761C5.50099 2.66143 5.41588 2.69628 5.33173 2.73351C5.21333 2.78587 5.09633 2.84163 4.98099 2.90068L4.98264 2.90203C2.79079 4.02706 1.29144 6.28033 1.29144 8.87127V13.4478C1.29144 14.0248 1.0409 14.5805 0.603988 14.9724C0.316119 15.2307 0.120305 15.5709 0.0403977 15.94C0.0137619 16.0631 0 16.1894 0 16.3169C0 16.5366 0.0398327 16.7474 0.112839 16.9426C0.196258 17.1657 0.32294 17.3685 0.482836 17.5412C0.52283 17.5843 0.564882 17.6256 0.608831 17.6648C0.652821 17.704 0.698707 17.7412 0.746369 17.7762C0.817882 17.8288 0.89331 17.8763 0.972209 17.9184C1.10369 17.9886 1.24478 18.0436 1.39293 18.0812C1.42256 18.0886 1.4525 18.0955 1.48269 18.1015C1.54306 18.1137 1.60449 18.1229 1.6668 18.1292C1.72911 18.1354 1.79235 18.1386 1.85632 18.1386H5.601C5.79536 19.3487 6.86523 20.2772 8.15215 20.2772C8.91623 20.2772 9.60384 19.9499 10.0771 19.4306C10.1269 19.376 10.1743 19.3192 10.2193 19.2604C10.2642 19.2017 10.3065 19.141 10.3462 19.0784C10.3859 19.0159 10.4229 18.9515 10.457 18.8856C10.4741 18.8526 10.4904 18.8191 10.506 18.7854C10.5997 18.5825 10.6669 18.3655 10.7033 18.1386H14.448C15.1197 18.1386 15.7093 17.7867 16.0352 17.2608C16.0508 17.2358 16.0657 17.2103 16.08 17.1845C16.1515 17.0555 16.2076 16.917 16.2458 16.7716C16.2534 16.7426 16.2604 16.7132 16.2666 16.6836C16.279 16.6243 16.2884 16.564 16.2947 16.5029C16.3011 16.4417 16.3043 16.3797 16.3043 16.3169C16.3044 16.1894 16.2906 16.0631 16.264 15.94ZM8.15219 0.792042C8.2704 0.792042 8.38174 0.821547 8.47896 0.873428C8.61505 0.946062 8.72345 1.06258 8.78427 1.20349C8.81901 1.284 8.83826 1.37248 8.83826 1.46527C8.83826 1.6509 8.76134 1.81921 8.63708 1.94111C8.60601 1.97161 8.57203 1.99917 8.5355 2.02341C8.49898 2.04765 8.45999 2.06848 8.41899 2.08555C8.37795 2.10262 8.33493 2.11585 8.29029 2.12484C8.24566 2.13383 8.19949 2.13854 8.15219 2.13854C8.10489 2.13854 8.05872 2.13383 8.01409 2.12484C7.96945 2.11585 7.92643 2.10262 7.88539 2.08555C7.84434 2.06848 7.80536 2.04761 7.76887 2.02341C7.73235 1.99917 7.69837 1.97161 7.66729 1.94111C7.54303 1.81921 7.46611 1.6509 7.46611 1.46527C7.46611 1.09406 7.77388 0.792042 8.15219 0.792042ZM9.56813 18.7924C9.5239 18.8498 9.47615 18.9043 9.42518 18.9559C9.3912 18.9902 9.35581 19.0232 9.31908 19.0547C9.00688 19.3226 8.59858 19.4852 8.15219 19.4852C7.83708 19.4852 7.54098 19.4042 7.28422 19.2623C7.15585 19.1914 7.03732 19.1052 6.93122 19.0063C6.91354 18.9899 6.89619 18.973 6.8792 18.9559C6.82822 18.9043 6.78048 18.8498 6.73625 18.7924C6.72152 18.7733 6.70715 18.7539 6.69319 18.7341C6.6653 18.6947 6.63903 18.6541 6.61445 18.6124C6.52845 18.4665 6.46335 18.3072 6.42328 18.1386H9.8811C9.82383 18.3795 9.71555 18.6012 9.56813 18.7924ZM14.448 17.3466H1.8564C1.27788 17.3466 0.807188 16.8847 0.807188 16.317C0.807188 16.0286 0.93161 15.7517 1.14861 15.557C1.75236 15.0154 2.09862 14.2466 2.09862 13.4478V9.50493C2.09862 9.50466 2.09858 9.50442 2.09858 9.50418V8.87127C2.09858 6.32223 3.74323 4.14326 6.04574 3.30187C6.05788 3.29747 6.06991 3.29288 6.0821 3.28852C6.10776 3.27934 6.13363 3.27058 6.15946 3.26171C6.18578 3.25272 6.21205 3.24369 6.23844 3.23506C6.25499 3.22963 6.27162 3.22444 6.28824 3.21918C6.3244 3.20769 6.36064 3.1964 6.39701 3.18559C6.40665 3.1827 6.41634 3.17993 6.42598 3.17712C6.46953 3.1644 6.5132 3.15209 6.55706 3.14036C6.56138 3.13922 6.5657 3.13807 6.57002 3.13692C6.61925 3.12385 6.66869 3.11133 6.71825 3.09949C6.71841 3.09945 6.71853 3.09941 6.71869 3.09937C7.02977 3.02512 7.34722 2.97494 7.66794 2.94971C7.66818 2.94971 7.66843 2.94967 7.66871 2.94963C7.71875 2.94571 7.76887 2.9425 7.81908 2.93977C7.82295 2.93957 7.82683 2.93925 7.8307 2.93906C7.87719 2.93664 7.92377 2.93494 7.97034 2.93359C7.9776 2.93339 7.98483 2.93296 7.99213 2.93276C8.04544 2.93137 8.0988 2.93066 8.15219 2.93066C8.20558 2.93066 8.25893 2.93137 8.31225 2.93276C8.31951 2.93296 8.32673 2.93335 8.334 2.93359C8.38061 2.93498 8.42714 2.93664 8.47363 2.93906C8.47751 2.93925 8.48134 2.93957 8.48518 2.93977C8.53538 2.94246 8.58555 2.94567 8.63563 2.94963C8.63587 2.94963 8.63611 2.94967 8.63632 2.94971C8.95708 2.97494 9.27457 3.02512 9.58564 3.09941C9.58576 3.09945 9.58588 3.09945 9.58601 3.09949C9.63564 3.11133 9.68508 3.12389 9.73436 3.13696C9.73864 3.13811 9.74292 3.13922 9.74719 3.14036C9.79106 3.15209 9.83477 3.16444 9.87831 3.17716C9.88796 3.17997 9.89764 3.18278 9.90729 3.18563C9.94365 3.19644 9.97989 3.20773 10.0161 3.21922C10.0326 3.22448 10.0493 3.22971 10.0659 3.2351C10.0923 3.24373 10.1186 3.25276 10.1448 3.26175C10.1707 3.27062 10.1965 3.27934 10.2222 3.28856C10.2343 3.29288 10.2464 3.29747 10.2586 3.30191C12.5612 4.14326 14.2058 6.32223 14.2058 8.87127V9.50418C14.2058 9.50446 14.2058 9.5047 14.2058 9.50493V13.4478C14.2058 14.2466 14.552 15.0154 15.1558 15.557C15.3728 15.7517 15.4972 16.0286 15.4972 16.317C15.4972 16.8847 15.0265 17.3466 14.448 17.3466Z" fill="#6C7783"/>
</svg>
