<svg width="40" height="40" viewBox="0 0 40 40" fill="none" xmlns="http://www.w3.org/2000/svg">
<circle cx="20" cy="20" r="20" fill="#BE1E2D"/>
<path d="M30.8568 14.2095L26.4231 10.7988C26.1665 10.6013 25.8748 10.4543 25.5634 10.3656L23.492 9.77368L22.8259 9.10766C22.7025 8.98374 22.5087 8.96454 22.3633 9.06182C21.649 9.49125 20.8334 9.72306 20 9.73355C19.167 9.72057 18.352 9.48893 17.6367 9.06182C17.4914 8.96471 17.2976 8.98391 17.1741 9.10766L16.5081 9.77368L14.4366 10.3656C14.1252 10.4543 13.8335 10.6013 13.5769 10.7988L9.14322 14.2095C8.99029 14.3271 8.95459 14.5431 9.06158 14.7036L11.9949 19.1036C12.0519 19.1892 12.1422 19.2469 12.2438 19.2626C12.3453 19.278 12.4487 19.2505 12.5292 19.1867L13.7667 18.1966V30.2669C13.7667 30.3642 13.8052 30.4575 13.874 30.5263C13.9428 30.595 14.0361 30.6336 14.1334 30.6336H25.8667C25.964 30.6336 26.0573 30.595 26.126 30.5263C26.1948 30.4575 26.2334 30.3642 26.2334 30.2669V18.1966L27.4709 19.1867C27.5512 19.2509 27.6547 19.2784 27.7563 19.2627C27.8578 19.2468 27.9481 19.1892 28.0051 19.1037L30.9385 14.7037C31.0454 14.5431 31.0097 14.3271 30.8568 14.2095ZM25.5 29.9003H20H14.5V29.1669H25.5V29.9003ZM27.6169 18.3642L26.9161 17.8034L28.7384 15.0703C28.8496 14.9019 28.8037 14.6753 28.6358 14.5633C28.4679 14.4514 28.241 14.4961 28.1283 14.6635L26.3414 17.3436L26.0959 17.1471C25.9858 17.0591 25.8349 17.0419 25.7079 17.103C25.5808 17.1641 25.5 17.2926 25.5 17.4336V28.4336H14.5V17.4336C14.5 17.2926 14.4192 17.1641 14.2922 17.103C14.1651 17.0419 14.0143 17.0591 13.9042 17.1472L13.6586 17.3436L11.8717 14.6636C11.7586 14.4973 11.5326 14.4533 11.3653 14.5648C11.1979 14.6764 11.1517 14.9019 11.2616 15.0703L13.084 17.8034L12.3831 18.3642L9.86192 14.5819L14.0238 11.3804C14.2071 11.2393 14.4155 11.1343 14.6379 11.071L16.8007 10.453C16.8606 10.4358 16.9152 10.4036 16.9593 10.3595L17.4932 9.82563C18.2655 10.2368 19.1252 10.4567 20.0001 10.4669C20.8749 10.4567 21.7346 10.2368 22.5069 9.82563L23.0408 10.3595C23.0849 10.4036 23.1395 10.4358 23.1995 10.453L25.3622 11.071C25.5847 11.1343 25.7931 11.2393 25.9763 11.3804L30.1382 14.5819L27.6169 18.3642Z" fill="white"/>
</svg>
