<svg width="30" height="30" viewBox="0 0 30 30" fill="none" xmlns="http://www.w3.org/2000/svg">
<circle cx="15" cy="15" r="15" fill="white"/>
<path d="M22.1678 7.84362C22.0625 7.73815 21.9375 7.65447 21.7998 7.59738C21.6622 7.54028 21.5147 7.5109 21.3657 7.5109C21.2166 7.5109 21.0691 7.54028 20.9315 7.59738C20.7938 7.65447 20.6688 7.73815 20.5635 7.84362L15 13.3958L9.43646 7.83224C9.33112 7.72691 9.20607 7.64335 9.06845 7.58635C8.93082 7.52934 8.78331 7.5 8.63435 7.5C8.48538 7.5 8.33788 7.52934 8.20025 7.58635C8.06263 7.64335 7.93758 7.72691 7.83224 7.83224C7.72691 7.93758 7.64335 8.06263 7.58635 8.20025C7.52934 8.33788 7.5 8.48538 7.5 8.63435C7.5 8.78331 7.52934 8.93082 7.58635 9.06845C7.64335 9.20607 7.72691 9.33112 7.83224 9.43646L13.3958 15L7.83224 20.5635C7.72691 20.6689 7.64335 20.7939 7.58635 20.9316C7.52934 21.0692 7.5 21.2167 7.5 21.3657C7.5 21.5146 7.52934 21.6621 7.58635 21.7997C7.64335 21.9374 7.72691 22.0624 7.83224 22.1678C7.93758 22.2731 8.06263 22.3566 8.20025 22.4137C8.33788 22.4707 8.48538 22.5 8.63435 22.5C8.78331 22.5 8.93082 22.4707 9.06845 22.4137C9.20607 22.3566 9.33112 22.2731 9.43646 22.1678L15 16.6042L20.5635 22.1678C20.6689 22.2731 20.7939 22.3566 20.9316 22.4137C21.0692 22.4707 21.2167 22.5 21.3657 22.5C21.5146 22.5 21.6621 22.4707 21.7997 22.4137C21.9374 22.3566 22.0624 22.2731 22.1678 22.1678C22.2731 22.0624 22.3566 21.9374 22.4137 21.7997C22.4707 21.6621 22.5 21.5146 22.5 21.3657C22.5 21.2167 22.4707 21.0692 22.4137 20.9316C22.3566 20.7939 22.2731 20.6689 22.1678 20.5635L16.6042 15L22.1678 9.43646C22.6001 9.00411 22.6001 8.27596 22.1678 7.84362Z" fill="#C0C5C9"/>
</svg>
