<svg width="13" height="13" viewBox="0 0 13 13" fill="none" xmlns="http://www.w3.org/2000/svg">
<path d="M12.4642 4.47422L4.25795 12.6805L1.43295 12.993C0.614203 13.0836 -0.0826715 12.393 0.00795347 11.568L0.320453 8.74297L8.5267 0.536719C9.24233 -0.178906 10.3986 -0.178906 11.1111 0.536719L12.4611 1.88672C13.1767 2.60234 13.1767 3.76172 12.4642 4.47422ZM9.3767 5.43984L7.56108 3.62422L1.75483 9.43359L1.5267 11.4742L3.56733 11.2461L9.3767 5.43984ZM11.4017 2.94922L10.0517 1.59922C9.92358 1.47109 9.7142 1.47109 9.5892 1.59922L8.62358 2.56484L10.4392 4.38047L11.4048 3.41484C11.5298 3.28359 11.5298 3.07734 11.4017 2.94922Z" fill="#111D5E"/>
</svg>
