<svg width="16" height="16" viewBox="0 0 16 16" fill="none" xmlns="http://www.w3.org/2000/svg">
<path d="M15.1282 8.24487L15.2782 8L15.1282 7.755C15.103 7.71411 14.4995 6.73999 13.327 5.76379C11.7676 4.46558 9.93042 3.7793 8.01404 3.7793C6.09814 3.7793 4.25647 4.46521 2.68811 5.76282C1.50891 6.73853 0.89856 7.71191 0.873169 7.75293L0.719971 8L0.873169 8.24707C0.89856 8.28809 1.50891 9.26147 2.68811 10.2372C4.25647 11.5348 6.09814 12.2207 8.01404 12.2207C9.93042 12.2207 11.7676 11.5344 13.327 10.2362C14.4995 9.26001 15.103 8.28589 15.1282 8.24487ZM12.7023 9.53625C11.2994 10.6954 9.72205 11.2831 8.01404 11.2831C6.30542 11.2831 4.7229 10.6951 3.31055 9.53516C2.58008 8.9353 2.08484 8.32788 1.84229 8C2.08496 7.67188 2.5802 7.06458 3.31055 6.46472C4.7229 5.30493 6.3053 4.7168 8.01404 4.7168C9.72205 4.7168 11.2993 5.30457 12.7023 6.46362C13.4294 7.06445 13.9204 7.67273 14.1597 8C13.9202 8.32739 13.4293 8.93567 12.7023 9.53625Z" fill="#6C7783"/>
<path d="M8 5.18335C6.4469 5.18335 5.18335 6.4469 5.18335 8C5.18335 9.5531 6.4469 10.8167 8 10.8167C9.5531 10.8167 10.8167 9.5531 10.8167 8C10.8167 6.4469 9.5531 5.18335 8 5.18335ZM8 9.87915C6.96387 9.87915 6.12085 9.03613 6.12085 8C6.12085 6.96387 6.96387 6.12085 8 6.12085C9.03613 6.12085 9.87915 6.96387 9.87915 8C9.87915 9.03613 9.03613 9.87915 8 9.87915Z" fill="#6C7783"/>
<path d="M0.9375 0.9375H2.89453V0H0V2.85938H0.9375V0.9375Z" fill="#6C7783"/>
<path d="M13.1055 0V0.9375H15.0625V2.85938H16V0H13.1055Z" fill="#6C7783"/>
<path d="M0.9375 13.1406H0V16H2.89453V15.0625H0.9375V13.1406Z" fill="#6C7783"/>
<path d="M15.0625 15.0625H13.1055V16H16V13.1406H15.0625V15.0625Z" fill="#6C7783"/>
</svg>
