<svg width="24" height="24" viewBox="0 0 24 24" fill="none" xmlns="http://www.w3.org/2000/svg">
<path d="M20.458 12.0597L20.6411 11.7609L20.458 11.462C20.4274 11.4121 19.691 10.2235 18.2604 9.03247C16.3577 7.4485 14.1162 6.61116 11.778 6.61116C9.44039 6.61116 7.19334 7.44805 5.27977 9.03128C3.84101 10.2218 3.09632 11.4094 3.06534 11.4594L2.87842 11.7609L3.06534 12.0623C3.09632 12.1124 3.84101 13.3 5.27977 14.4905C7.19334 16.0737 9.44039 16.9106 11.778 16.9106C14.1162 16.9106 16.3577 16.0733 18.2604 14.4893C19.691 13.2982 20.4274 12.1097 20.458 12.0597ZM17.4982 13.6353C15.7866 15.0496 13.862 15.7666 11.778 15.7666C9.69329 15.7666 7.76244 15.0492 6.03921 13.634C5.14796 12.9021 4.54371 12.1609 4.24777 11.7609C4.54386 11.3605 5.14811 10.6196 6.03921 9.88768C7.76244 8.47261 9.69314 7.75502 11.778 7.75502C13.862 7.75502 15.7864 8.47216 17.4982 9.88634C18.3854 10.6194 18.9844 11.3616 19.2764 11.7609C18.9841 12.1603 18.3852 12.9025 17.4982 13.6353Z" fill="#6C7783"/>
<path d="M11.7608 8.32426C9.86589 8.32426 8.32422 9.86594 8.32422 11.7609C8.32422 13.6558 9.86589 15.1975 11.7608 15.1975C13.6558 15.1975 15.1975 13.6558 15.1975 11.7609C15.1975 9.86594 13.6558 8.32426 11.7608 8.32426ZM11.7608 14.0537C10.4966 14.0537 9.46807 13.0251 9.46807 11.7609C9.46807 10.4967 10.4966 9.46812 11.7608 9.46812C13.025 9.46812 14.0536 10.4967 14.0536 11.7609C14.0536 13.0251 13.025 14.0537 11.7608 14.0537Z" fill="#6C7783"/>
<path d="M3.14385 3.14385H5.53165V2H2V5.48876H3.14385V3.14385Z" fill="#6C7783"/>
<path d="M17.9901 2V3.14385H20.3779V5.48876H21.5218V2H17.9901Z" fill="#6C7783"/>
<path d="M3.14385 18.033H2V21.5218H5.53165V20.3779H3.14385V18.033Z" fill="#6C7783"/>
<path d="M20.3779 20.3779H17.9901V21.5218H21.5218V18.033H20.3779V20.3779Z" fill="#6C7783"/>
<rect x="20.3017" y="2.35349" width="1.94022" height="24.8999" transform="rotate(46.1219 20.3017 2.35349)" fill="#6C7783" stroke="white" stroke-width="0.5"/>
</svg>
