<svg width="20" height="20" viewBox="0 0 20 20" fill="none" xmlns="http://www.w3.org/2000/svg">
<path d="M18.458 10.0597L18.6411 9.76089L18.458 9.46197C18.4274 9.41208 17.691 8.22354 16.2604 7.03247C14.3577 5.4485 12.1162 4.61116 9.778 4.61116C7.44039 4.61116 5.19334 5.44805 3.27977 7.03128C1.84101 8.22175 1.09632 9.4094 1.06534 9.45944L0.878418 9.76089L1.06534 10.0623C1.09632 10.1124 1.84101 11.3 3.27977 12.4905C5.19334 14.0737 7.44039 14.9106 9.778 14.9106C12.1162 14.9106 14.3577 14.0733 16.2604 12.4893C17.691 11.2982 18.4274 10.1097 18.458 10.0597ZM15.4982 11.6353C13.7866 13.0496 11.862 13.7666 9.778 13.7666C7.69329 13.7666 5.76244 13.0492 4.03921 11.634C3.14796 10.9021 2.54371 10.1609 2.24777 9.76089C2.54386 9.36055 3.14811 8.61957 4.03921 7.88768C5.76244 6.47261 7.69314 5.75502 9.778 5.75502C11.862 5.75502 13.7864 6.47216 15.4982 7.88634C16.3854 8.61942 16.9844 9.36159 17.2764 9.76089C16.9841 10.1603 16.3852 10.9025 15.4982 11.6353Z" fill="#6C7783"/>
<path d="M9.76085 6.32426C7.86589 6.32426 6.32422 7.86594 6.32422 9.76089C6.32422 11.6558 7.86589 13.1975 9.76085 13.1975C11.6558 13.1975 13.1975 11.6558 13.1975 9.76089C13.1975 7.86594 11.6558 6.32426 9.76085 6.32426ZM9.76085 12.0537C8.49665 12.0537 7.46807 11.0251 7.46807 9.76089C7.46807 8.4967 8.49665 7.46812 9.76085 7.46812C11.025 7.46812 12.0536 8.4967 12.0536 9.76089C12.0536 11.0251 11.025 12.0537 9.76085 12.0537Z" fill="#6C7783"/>
<path d="M1.14385 1.14385H3.53165V0H0V3.48876H1.14385V1.14385Z" fill="#6C7783"/>
<path d="M15.9901 0V1.14385H18.3779V3.48876H19.5218V0H15.9901Z" fill="#6C7783"/>
<path d="M1.14385 16.033H0V19.5218H3.53165V18.3779H1.14385V16.033Z" fill="#6C7783"/>
<path d="M18.3779 18.3779H15.9901V19.5218H19.5218V16.033H18.3779V18.3779Z" fill="#6C7783"/>
<rect x="18.3017" y="0.353486" width="1.94022" height="24.8999" transform="rotate(46.1219 18.3017 0.353486)" fill="#6C7783" stroke="white" stroke-width="0.5"/>
</svg>
