<svg width="16" height="15" viewBox="0 0 16 15" fill="none" xmlns="http://www.w3.org/2000/svg">
<path d="M3.38111 14.499L3.38101 14.4985L7.76992 12.2426L7.99845 12.1251L8.227 12.2425L12.6176 14.4983C12.6177 14.4983 12.6177 14.4984 12.6177 14.4984C12.6186 14.4988 12.6194 14.4992 12.6201 14.4995C12.6214 14.4988 12.6234 14.4977 12.6257 14.4958C12.6319 14.4909 12.6375 14.4837 12.6408 14.4752C12.6435 14.4683 12.6463 14.4569 12.643 14.4379L12.6429 14.4376L11.8129 9.70773L11.7667 9.44398L11.9605 9.25928L15.4831 5.90368C15.4831 5.90367 15.4832 5.90366 15.4832 5.90365C15.4927 5.89458 15.4963 5.88671 15.4983 5.87838C15.5008 5.86792 15.5009 5.85362 15.4964 5.83864C15.4919 5.82361 15.4852 5.8155 15.4824 5.81288C15.4823 5.81279 15.4822 5.8127 15.4821 5.81261C15.4814 5.81193 15.4808 5.81123 15.4757 5.81053L15.475 5.81043L10.5771 5.11444L10.3187 5.07772L10.2011 4.84471L8.0172 0.517931L3.38111 14.499ZM3.38111 14.499C3.38067 14.4992 3.38027 14.4993 3.37991 14.4995M3.38111 14.499L3.37991 14.4995M3.37991 14.4995C3.37856 14.4988 3.37665 14.4977 3.37428 14.4958C3.36812 14.4909 3.36254 14.4837 3.3592 14.4752C3.35647 14.4683 3.35368 14.4569 3.35702 14.4379L3.35707 14.4376L4.18706 9.70773L4.23334 9.44398L4.03945 9.25928L0.516862 5.90368C0.516832 5.90365 0.516802 5.90362 0.516772 5.90359C0.507319 5.89454 0.50366 5.88669 0.501697 5.87838C0.49923 5.86792 0.499131 5.85362 0.503592 5.83864C0.50807 5.82361 0.514811 5.8155 0.517638 5.81288C0.517737 5.81279 0.517825 5.8127 0.517914 5.81261C0.51857 5.81193 0.51924 5.81123 0.524255 5.81053L0.524988 5.81042L5.42289 5.11444L5.68131 5.07772L5.79892 4.84471L7.9828 0.51793C7.98684 0.50994 7.99024 0.505808 7.99191 0.504007C7.99362 0.502152 7.99473 0.501431 7.99517 0.501167C7.99607 0.500622 7.99763 0.5 8 0.5C8.00237 0.5 8.00393 0.500622 8.00483 0.501167C8.00527 0.501431 8.00638 0.502152 8.00809 0.504007C8.00975 0.505798 8.01312 0.509892 8.01713 0.517791L3.37991 14.4995Z" stroke="#6C7783"/>
</svg>
