<svg width="18" height="18" viewBox="0 0 18 18" fill="none" xmlns="http://www.w3.org/2000/svg">
<circle cx="9" cy="9" r="9" fill="#C4C4C4"/>
<path d="M13.3007 4.70617C13.2375 4.64289 13.1625 4.59268 13.0799 4.55843C12.9973 4.52417 12.9088 4.50654 12.8194 4.50654C12.73 4.50654 12.6415 4.52417 12.5589 4.55843C12.4763 4.59268 12.4013 4.64289 12.3381 4.70617L9 8.03747L5.66187 4.69935C5.59867 4.63615 5.52364 4.58601 5.44107 4.55181C5.35849 4.5176 5.26999 4.5 5.18061 4.5C5.09123 4.5 5.00273 4.5176 4.92015 4.55181C4.83758 4.58601 4.76255 4.63615 4.69935 4.69935C4.63615 4.76255 4.58601 4.83758 4.55181 4.92015C4.5176 5.00273 4.5 5.09123 4.5 5.18061C4.5 5.26999 4.5176 5.35849 4.55181 5.44107C4.58601 5.52364 4.63615 5.59867 4.69935 5.66187L8.03747 9L4.69935 12.3381C4.63615 12.4013 4.58601 12.4764 4.55181 12.5589C4.5176 12.6415 4.5 12.73 4.5 12.8194C4.5 12.9088 4.5176 12.9973 4.55181 13.0798C4.58601 13.1624 4.63615 13.2375 4.69935 13.3007C4.76255 13.3639 4.83758 13.414 4.92015 13.4482C5.00273 13.4824 5.09123 13.5 5.18061 13.5C5.26999 13.5 5.35849 13.4824 5.44107 13.4482C5.52364 13.414 5.59867 13.3639 5.66187 13.3007L9 9.96253L12.3381 13.3007C12.4013 13.3639 12.4764 13.414 12.5589 13.4482C12.6415 13.4824 12.73 13.5 12.8194 13.5C12.9088 13.5 12.9973 13.4824 13.0798 13.4482C13.1624 13.414 13.2375 13.3639 13.3007 13.3007C13.3639 13.2375 13.414 13.1624 13.4482 13.0798C13.4824 12.9973 13.5 12.9088 13.5 12.8194C13.5 12.73 13.4824 12.6415 13.4482 12.5589C13.414 12.4764 13.3639 12.4013 13.3007 12.3381L9.96253 9L13.3007 5.66187C13.5601 5.40247 13.5601 4.96558 13.3007 4.70617Z" fill="white"/>
</svg>
