<svg width="16" height="16" viewBox="0 0 16 16" fill="none" xmlns="http://www.w3.org/2000/svg">
<path d="M8.66663 4.00012C8.66663 4.36829 8.36816 4.66675 8 4.66675C7.63184 4.66675 7.33337 4.36829 7.33337 4.00012C7.33337 3.63196 7.63184 3.3335 8 3.3335C8.36816 3.3335 8.66663 3.63196 8.66663 4.00012Z" fill="#111D5E"/>
<path d="M8 12.6666C7.724 12.6666 7.5 12.4426 7.5 12.1666V7H6.83337C6.55737 7 6.33337 6.776 6.33337 6.5C6.33337 6.224 6.55737 6 6.83337 6H8C8.276 6 8.5 6.224 8.5 6.5V12.1666C8.5 12.4426 8.276 12.6666 8 12.6666Z" fill="#111D5E"/>
<path d="M8 16C3.58862 16 0 12.4114 0 8C0 3.58862 3.58862 0 8 0C12.4114 0 16 3.58862 16 8C16 12.4114 12.4114 16 8 16ZM8 1C4.14001 1 1 4.14001 1 8C1 11.86 4.14001 15 8 15C11.86 15 15 11.86 15 8C15 4.14001 11.86 1 8 1Z" fill="#111D5E"/>
<path d="M9.5 12.6665H6.5C6.224 12.6665 6 12.4425 6 12.1665C6 11.8905 6.224 11.6665 6.5 11.6665H9.5C9.776 11.6665 10 11.8905 10 12.1665C10 12.4425 9.776 12.6665 9.5 12.6665Z" fill="#111D5E"/>
</svg>
