<svg width="24" height="24" viewBox="0 0 24 24" fill="none" xmlns="http://www.w3.org/2000/svg">
<path d="M19.1999 11.136C19.1999 10.128 18.3839 9.59997 17.2799 9.59997H14.0639C14.3039 8.73597 14.3999 7.91997 14.3999 7.19997C14.3999 4.41597 13.6319 3.83997 12.9599 3.83997C12.5279 3.83997 12.1919 3.88797 11.7599 4.12797C11.6159 4.22397 11.5679 4.31997 11.5199 4.46397L11.0399 7.05597C10.5119 8.39997 9.21591 9.59997 8.15991 10.416V17.28C8.54391 17.28 8.92791 17.472 9.40791 17.712C9.93591 17.952 10.4639 18.24 11.0399 18.24H15.5999C16.5599 18.24 17.2799 17.472 17.2799 16.8C17.2799 16.656 17.2799 16.56 17.2319 16.464C17.8079 16.224 18.2399 15.744 18.2399 15.12C18.2399 14.832 18.1919 14.592 18.0959 14.352C18.4799 14.112 18.8159 13.68 18.8159 13.2C18.8159 12.912 18.6719 12.624 18.5279 12.384C18.9119 12.096 19.1999 11.616 19.1999 11.136ZM18.1919 11.136C18.1919 11.76 17.5679 11.808 17.4719 12.096C17.3759 12.432 17.8559 12.528 17.8559 13.104C17.8559 13.68 17.1359 13.68 17.0399 14.016C16.9439 14.4 17.2799 14.496 17.2799 15.072V15.168C17.1839 15.648 16.4639 15.696 16.3199 15.888C16.1759 16.128 16.3199 16.224 16.3199 16.752C16.3199 17.04 15.9839 17.232 15.5999 17.232H11.0399C10.6559 17.232 10.2719 17.04 9.79191 16.8C9.40791 16.608 9.02391 16.416 8.63991 16.32V11.28C9.83991 10.368 11.3759 9.02397 11.9519 7.34397V7.24797L12.3839 4.84797C12.5759 4.79997 12.7199 4.79997 12.9599 4.79997C13.0559 4.79997 13.4399 5.37597 13.4399 7.19997C13.4399 7.91997 13.2959 8.68797 13.0559 9.59997H12.9599C12.6719 9.59997 12.4799 9.79197 12.4799 10.08C12.4799 10.368 12.6719 10.56 12.9599 10.56H17.2799C17.7599 10.56 18.1919 10.8 18.1919 11.136Z" fill="#BE1E2D"/>
<path d="M7.68009 18.24H4.80009C4.27209 18.24 3.84009 17.808 3.84009 17.28V10.56C3.84009 10.032 4.27209 9.59998 4.80009 9.59998H7.68009C8.20809 9.59998 8.64009 10.032 8.64009 10.56V17.28C8.64009 17.808 8.20809 18.24 7.68009 18.24ZM4.80009 10.56V17.28H7.68009V10.56H4.80009Z" fill="#BE1E2D"/>
</svg>
