<svg width="33" height="22" viewBox="0 0 33 22" fill="none" xmlns="http://www.w3.org/2000/svg">
<rect x="17.5" y="6.39453" width="15" height="14.1579" rx="1.5" stroke="white"/>
<path fill-rule="evenodd" clip-rule="evenodd" d="M29.6667 4.78623C29.6667 2.14435 27.5751 0 25 0C22.4228 0 20.3334 2.14253 20.3334 4.78623V10.2632C20.3334 10.641 20.6319 10.9474 21 10.9474C21.3682 10.9474 21.6667 10.641 21.6667 10.2632V4.78623C21.6667 2.89855 23.1589 1.36842 25 1.36842C26.839 1.36842 28.3334 2.90044 28.3334 4.78623V10.2632C28.3334 10.641 28.6319 10.9474 29 10.9474C29.3682 10.9474 29.6667 10.641 29.6667 10.2632V4.78623Z" fill="white"/>
<rect x="18" y="17" width="14" height="1" fill="white"/>
<rect y="11" width="10" height="1.5" rx="0.75" fill="white"/>
<rect x="4" y="17" width="10" height="1.5" rx="0.75" transform="rotate(-90 4 17)" fill="white"/>
</svg>
