<svg width="69" height="64" viewBox="0 0 69 64" fill="none" xmlns="http://www.w3.org/2000/svg">
<path d="M1.792 57.07C1.61467 57.07 1.47467 57.0187 1.372 56.916C1.26933 56.804 1.218 56.6593 1.218 56.482V47.69C1.218 47.522 1.26933 47.3867 1.372 47.284C1.484 47.1813 1.62867 47.13 1.806 47.13H5.124C6.16 47.13 6.96267 47.382 7.532 47.886C8.11067 48.39 8.4 49.104 8.4 50.028C8.4 50.952 8.11067 51.6707 7.532 52.184C6.95333 52.6973 6.15067 52.954 5.124 52.954H2.366V56.482C2.366 56.6593 2.31467 56.804 2.212 56.916C2.10933 57.0187 1.96933 57.07 1.792 57.07ZM5.012 52.002C6.51467 52.002 7.266 51.344 7.266 50.028C7.266 48.7307 6.51467 48.082 5.012 48.082H2.366V52.002H5.012ZM17.7317 51.862C17.8717 51.862 17.9837 51.904 18.0677 51.988C18.1611 52.072 18.2077 52.1887 18.2077 52.338V55.824C18.2077 56.048 18.1704 56.216 18.0957 56.328C18.0304 56.44 17.9044 56.5287 17.7177 56.594C17.3444 56.7527 16.8917 56.8787 16.3597 56.972C15.8277 57.0653 15.2957 57.112 14.7637 57.112C13.7837 57.112 12.9391 56.9113 12.2297 56.51C11.5204 56.1087 10.9744 55.53 10.5917 54.774C10.2184 54.018 10.0317 53.1127 10.0317 52.058C10.0317 51.022 10.2184 50.126 10.5917 49.37C10.9651 48.614 11.5017 48.0353 12.2017 47.634C12.9017 47.2233 13.7231 47.018 14.6657 47.018C15.3191 47.018 15.9257 47.1207 16.4857 47.326C17.0457 47.522 17.5171 47.8067 17.8997 48.18C18.0584 48.3387 18.1377 48.502 18.1377 48.67C18.1377 48.8007 18.1004 48.9173 18.0257 49.02C17.9511 49.1133 17.8577 49.16 17.7457 49.16C17.6337 49.16 17.5031 49.104 17.3537 48.992C16.8684 48.6187 16.4297 48.362 16.0377 48.222C15.6457 48.0727 15.1931 47.998 14.6797 47.998C13.5691 47.998 12.7151 48.348 12.1177 49.048C11.5297 49.748 11.2357 50.7513 11.2357 52.058C11.2357 53.3927 11.5344 54.41 12.1317 55.11C12.7384 55.8007 13.6251 56.146 14.7917 56.146C15.6597 56.146 16.4484 56.0153 17.1577 55.754V52.758H15.1137C14.9551 52.758 14.8291 52.716 14.7357 52.632C14.6424 52.548 14.5957 52.4407 14.5957 52.31C14.5957 52.17 14.6424 52.0627 14.7357 51.988C14.8291 51.904 14.9551 51.862 15.1137 51.862H17.7317ZM30.236 51.932C30.8053 52.0813 31.244 52.3613 31.552 52.772C31.8693 53.1827 32.028 53.696 32.028 54.312C32.028 55.18 31.7433 55.8473 31.174 56.314C30.6046 56.7713 29.7973 57 28.752 57H25.224C25.0466 57 24.902 56.9487 24.79 56.846C24.6873 56.7433 24.636 56.608 24.636 56.44V47.69C24.636 47.522 24.6873 47.3867 24.79 47.284C24.902 47.1813 25.0466 47.13 25.224 47.13H28.598C29.6153 47.13 30.404 47.354 30.964 47.802C31.524 48.25 31.804 48.8847 31.804 49.706C31.804 50.238 31.664 50.6953 31.384 51.078C31.1133 51.4607 30.7306 51.7453 30.236 51.932ZM25.77 51.512H28.43C29.1673 51.512 29.7226 51.3627 30.096 51.064C30.4786 50.7653 30.67 50.3313 30.67 49.762C30.67 48.642 29.9233 48.082 28.43 48.082H25.77V51.512ZM28.64 56.048C29.4146 56.048 29.984 55.908 30.348 55.628C30.7213 55.3387 30.908 54.8907 30.908 54.284C30.908 53.0707 30.152 52.464 28.64 52.464H25.77V56.048H28.64ZM39.4296 55.418C39.5322 55.418 39.6209 55.46 39.6956 55.544C39.7702 55.628 39.8076 55.7353 39.8076 55.866C39.8076 56.0993 39.6442 56.314 39.3176 56.51C38.9816 56.706 38.6269 56.8553 38.2536 56.958C37.8802 57.0513 37.5162 57.098 37.1616 57.098C36.1069 57.098 35.2716 56.7853 34.6556 56.16C34.0489 55.5347 33.7456 54.6713 33.7456 53.57C33.7456 52.87 33.8809 52.254 34.1516 51.722C34.4222 51.1807 34.8002 50.7607 35.2856 50.462C35.7802 50.1633 36.3402 50.014 36.9656 50.014C37.8522 50.014 38.5569 50.3033 39.0796 50.882C39.6022 51.4607 39.8636 52.2447 39.8636 53.234C39.8636 53.4207 39.8262 53.556 39.7516 53.64C39.6769 53.724 39.5556 53.766 39.3876 53.766H34.8796C34.9636 55.3713 35.7242 56.174 37.1616 56.174C37.5256 56.174 37.8382 56.1273 38.0996 56.034C38.3609 55.9313 38.6409 55.796 38.9396 55.628C39.1822 55.488 39.3456 55.418 39.4296 55.418ZM36.9796 50.896C36.3822 50.896 35.9016 51.0827 35.5376 51.456C35.1829 51.8293 34.9729 52.3567 34.9076 53.038H38.8696C38.8509 52.3473 38.6782 51.82 38.3516 51.456C38.0249 51.0827 37.5676 50.896 36.9796 50.896ZM44.5704 50.014C46.2784 50.014 47.1324 50.91 47.1324 52.702V56.51C47.1324 56.678 47.081 56.8133 46.9784 56.916C46.885 57.0187 46.7544 57.07 46.5864 57.07C46.4184 57.07 46.283 57.0187 46.1804 56.916C46.0777 56.8133 46.0264 56.678 46.0264 56.51V55.838C45.849 56.2393 45.5784 56.552 45.2144 56.776C44.8504 56.9907 44.4304 57.098 43.9544 57.098C43.5157 57.098 43.1097 57.0093 42.7364 56.832C42.3724 56.6547 42.083 56.4073 41.8684 56.09C41.6537 55.7727 41.5464 55.4227 41.5464 55.04C41.5464 54.5267 41.677 54.13 41.9384 53.85C42.1997 53.5607 42.629 53.3553 43.2264 53.234C43.8237 53.1033 44.6544 53.038 45.7184 53.038H46.0264V52.576C46.0264 52.016 45.9097 51.6053 45.6764 51.344C45.4524 51.0827 45.0837 50.952 44.5704 50.952C43.9357 50.952 43.2917 51.1247 42.6384 51.47C42.3864 51.6287 42.209 51.708 42.1064 51.708C41.9944 51.708 41.901 51.666 41.8264 51.582C41.7517 51.498 41.7144 51.3907 41.7144 51.26C41.7144 51.1293 41.7517 51.0173 41.8264 50.924C41.9104 50.8213 42.041 50.7187 42.2184 50.616C42.545 50.4293 42.9137 50.2847 43.3244 50.182C43.7444 50.07 44.1597 50.014 44.5704 50.014ZM44.1084 56.202C44.6684 56.202 45.1257 56.0153 45.4804 55.642C45.8444 55.2593 46.0264 54.7693 46.0264 54.172V53.766H45.7744C44.953 53.766 44.3277 53.8033 43.8984 53.878C43.469 53.9433 43.161 54.06 42.9744 54.228C42.797 54.3867 42.7084 54.6247 42.7084 54.942C42.7084 55.306 42.839 55.6093 43.1004 55.852C43.371 56.0853 43.707 56.202 44.1084 56.202ZM54.6382 50.042C54.8155 50.042 54.9509 50.0933 55.0442 50.196C55.1469 50.2987 55.1982 50.434 55.1982 50.602V56.524C55.1982 56.6827 55.1469 56.8133 55.0442 56.916C54.9509 57.0187 54.8155 57.07 54.6382 57.07C54.4702 57.07 54.3349 57.0233 54.2322 56.93C54.1389 56.8273 54.0922 56.6967 54.0922 56.538V55.838C53.8775 56.2487 53.5742 56.5613 53.1822 56.776C52.7995 56.9907 52.3655 57.098 51.8802 57.098C51.0682 57.098 50.4569 56.874 50.0462 56.426C49.6355 55.9687 49.4302 55.2967 49.4302 54.41V50.602C49.4302 50.434 49.4815 50.2987 49.5842 50.196C49.6869 50.0933 49.8269 50.042 50.0042 50.042C50.1815 50.042 50.3169 50.0933 50.4102 50.196C50.5129 50.2987 50.5642 50.434 50.5642 50.602V54.382C50.5642 54.9887 50.6855 55.4367 50.9282 55.726C51.1709 56.006 51.5535 56.146 52.0762 56.146C52.6735 56.146 53.1542 55.9547 53.5182 55.572C53.8822 55.18 54.0642 54.6667 54.0642 54.032V50.602C54.0642 50.434 54.1155 50.2987 54.2182 50.196C54.3209 50.0933 54.4609 50.042 54.6382 50.042ZM60.7059 56.174C61.0325 56.202 61.1959 56.3513 61.1959 56.622C61.1959 56.7807 61.1352 56.902 61.0139 56.986C60.9019 57.0607 60.7292 57.0887 60.4959 57.07L60.1179 57.042C59.3712 56.986 58.8205 56.762 58.4659 56.37C58.1112 55.978 57.9339 55.3853 57.9339 54.592V51.078H56.9959C56.8372 51.078 56.7112 51.0407 56.6179 50.966C56.5339 50.882 56.4919 50.7747 56.4919 50.644C56.4919 50.504 56.5339 50.392 56.6179 50.308C56.7112 50.224 56.8372 50.182 56.9959 50.182H57.9339V48.6C57.9339 48.4227 57.9852 48.2873 58.0879 48.194C58.1905 48.0913 58.3305 48.04 58.5079 48.04C58.6759 48.04 58.8112 48.0913 58.9139 48.194C59.0165 48.2873 59.0679 48.4227 59.0679 48.6V50.182H60.6219C60.7712 50.182 60.8879 50.224 60.9719 50.308C61.0652 50.392 61.1119 50.504 61.1119 50.644C61.1119 50.7747 61.0652 50.882 60.9719 50.966C60.8879 51.0407 60.7712 51.078 60.6219 51.078H59.0679V54.648C59.0679 55.1613 59.1705 55.5347 59.3759 55.768C59.5905 55.992 59.9079 56.118 60.3279 56.146L60.7059 56.174ZM67.5597 50.392C67.6624 50.168 67.8257 50.056 68.0497 50.056C68.1897 50.056 68.3157 50.1027 68.4277 50.196C68.5397 50.2893 68.5957 50.406 68.5957 50.546C68.5957 50.63 68.577 50.7047 68.5397 50.77L64.6057 59.254C64.559 59.3567 64.489 59.436 64.3957 59.492C64.3117 59.548 64.223 59.576 64.1297 59.576C63.9897 59.576 63.8637 59.5293 63.7517 59.436C63.649 59.352 63.5977 59.24 63.5977 59.1C63.5977 59.0253 63.6164 58.9507 63.6537 58.876L64.6337 56.762L61.8617 50.77C61.8244 50.7047 61.8057 50.6347 61.8057 50.56C61.8057 50.42 61.8664 50.2987 61.9877 50.196C62.1184 50.0933 62.2584 50.042 62.4077 50.042C62.501 50.042 62.5897 50.07 62.6737 50.126C62.767 50.182 62.837 50.2613 62.8837 50.364L65.2217 55.614L67.5597 50.392Z" fill="#2E3E4E"/>
<circle cx="35" cy="20" r="20" fill="#BE1E2D"/>
<path d="M43.7783 18.7427C43.7782 17.9581 43.571 17.1875 43.1778 16.5086C42.7846 15.8297 42.2193 15.2666 41.5389 14.876C40.8585 14.4855 40.087 14.2813 39.3025 14.2842C38.518 14.2871 37.7481 14.4969 37.0706 14.8925C37.0368 14.9116 37.0072 14.9373 36.9834 14.968C36.9597 14.9987 36.9423 15.0338 36.9322 15.0713C36.9221 15.1087 36.9196 15.1478 36.9248 15.1863C36.93 15.2248 36.9427 15.2618 36.9623 15.2953C36.9819 15.3288 37.008 15.358 37.039 15.3814C37.07 15.4047 37.1053 15.4216 37.1429 15.4312C37.1805 15.4408 37.2197 15.4428 37.2581 15.4371C37.2965 15.4314 37.3333 15.4181 37.3666 15.3981C38.2149 14.9016 39.2201 14.7458 40.1789 14.9623C41.1376 15.1788 41.9784 15.7513 42.5312 16.5641C43.0839 17.3769 43.3073 18.3692 43.1562 19.3405C43.005 20.3117 42.4907 21.1893 41.7171 21.7957C40.9436 22.4021 39.9686 22.6921 38.9894 22.6071C38.0101 22.522 37.0998 22.0681 36.4424 21.3374C35.7851 20.6066 35.4298 19.6535 35.4485 18.6707C35.4671 17.688 35.8583 16.749 36.543 16.0437C36.5971 15.988 36.6269 15.9131 36.6258 15.8354C36.6247 15.7577 36.5928 15.6836 36.537 15.6295C36.5094 15.6027 36.4768 15.5815 36.4411 15.5673C36.4053 15.5531 36.3671 15.5461 36.3287 15.5466C36.251 15.5477 36.1769 15.5797 36.1228 15.6354C35.6137 16.1593 35.2412 16.8002 35.0379 17.5018C34.8346 18.2034 34.8069 18.9441 34.9571 19.659C35.1072 20.3738 35.4308 21.0408 35.8992 21.6013C36.3676 22.1618 36.9666 22.5986 37.6434 22.8733C38.3202 23.148 39.0542 23.2522 39.7807 23.1768C40.5072 23.1013 41.2041 22.8485 41.81 22.4405C42.4159 22.0325 42.9123 21.482 43.2555 20.8372C43.5987 20.1924 43.7783 19.4731 43.7783 18.7427Z" fill="white"/>
<path d="M34.9268 30.0703H43.7134C44.1045 30.0703 44.4918 29.9933 44.8532 29.8436C45.2146 29.6939 45.5429 29.4745 45.8195 29.1979C46.0961 28.9213 46.3155 28.593 46.4652 28.2316C46.6149 27.8703 46.6919 27.4829 46.6919 27.0918C46.6919 27.0141 46.661 26.9396 46.6061 26.8846C46.5511 26.8297 46.4766 26.7988 46.3989 26.7988H45.8027V25.6758C45.7997 25.5968 45.7661 25.522 45.709 25.4673C45.6518 25.4126 45.5757 25.3823 45.4966 25.3828H42.3359V24.0831C44.2891 22.9902 45.4534 20.9606 45.4534 18.7427C45.4534 15.354 42.7025 12.5972 39.3138 12.5972C35.9251 12.5972 33.1723 15.354 33.1723 18.7427C33.1753 19.8276 33.4643 20.8926 34.0101 21.8303C34.5559 22.768 35.3393 23.5452 36.2813 24.0835V25.3828H33.1431C33.1053 25.3831 33.0679 25.3909 33.0332 25.4059C32.9986 25.4209 32.9672 25.4427 32.9411 25.4701C32.915 25.4974 32.8947 25.5297 32.8813 25.565C32.868 25.6004 32.8618 25.638 32.8633 25.6758V26.7988H32.2412C32.1635 26.7988 32.089 26.8297 32.0341 26.8846C31.9791 26.9396 31.9482 27.0141 31.9482 27.0918C31.9491 27.8815 32.2632 28.6386 32.8216 29.197C33.38 29.7553 34.1371 30.0694 34.9268 30.0703ZM33.7607 18.7524C33.7607 15.6868 36.2545 13.188 39.3198 13.188C40.7921 13.1924 42.2026 13.7803 43.2421 14.8229C44.2817 15.8655 44.8654 17.2777 44.8654 18.75C44.8654 20.2223 44.2817 21.6346 43.2421 22.6772C42.2026 23.7198 40.7921 24.3077 39.3198 24.3121C38.4116 24.3121 37.5108 24.0645 36.7147 23.6738C35.8225 23.1983 35.0763 22.4892 34.5559 21.6224C34.0356 20.7555 33.7607 19.7634 33.7607 18.7524ZM41.75 24.3764V25.3828H36.8672V24.377C37.6375 24.7123 38.4684 24.8862 39.3086 24.8879C40.1533 24.8877 41.0176 24.7115 41.75 24.3764ZM42.3349 27.3848C42.4126 27.3848 42.4871 27.3539 42.5421 27.299C42.597 27.244 42.6279 27.1695 42.6279 27.0918C42.6279 27.0141 42.597 26.9396 42.5421 26.8846C42.4871 26.8297 42.4126 26.7988 42.3349 26.7988H33.4492V25.9688H45.2168V26.7988H43.817C43.7393 26.7988 43.6648 26.8297 43.6099 26.8846C43.5549 26.9396 43.5241 27.0141 43.5241 27.0918C43.5241 27.1695 43.5549 27.244 43.6099 27.299C43.6648 27.3539 43.7393 27.3848 43.817 27.3848H46.0883C46.0166 27.9642 45.7356 28.4974 45.2982 28.8841C44.8608 29.2707 44.2972 29.4842 43.7134 29.4844H34.9268C34.3431 29.4836 33.7799 29.2699 33.3426 28.8833C32.9054 28.4968 32.6243 27.9639 32.552 27.3848H42.3349Z" fill="white"/>
<path d="M25.5776 30.0703H29.6792C30.0169 30.0703 30.3408 29.9369 30.5805 29.6991C30.8203 29.4613 30.9563 29.1384 30.959 28.8007V22.8925C30.9567 22.8138 30.9236 22.7391 30.867 22.6844C30.8103 22.6296 30.7345 22.5992 30.6558 22.5996H30.3731V17.0332C30.3707 16.9544 30.3377 16.8797 30.2811 16.825C30.2244 16.7702 30.1486 16.7398 30.0698 16.7402H29.6895V13.1757C29.6884 13.1231 29.6735 13.0717 29.6461 13.0267C29.6188 12.9817 29.5799 12.9447 29.5336 12.9196L26.0155 10.9665C25.9716 10.9418 25.9219 10.9291 25.8715 10.9297C25.8211 10.9303 25.7717 10.9443 25.7284 10.9701C25.6849 10.9962 25.6491 11.0333 25.6244 11.0776C25.5997 11.1219 25.5871 11.1719 25.5879 11.2226V13.0781C25.5879 13.1558 25.6188 13.2303 25.6737 13.2853C25.7286 13.3402 25.8032 13.3711 25.8809 13.3711C25.9586 13.3711 26.0331 13.3402 26.088 13.2853C26.143 13.2303 26.1738 13.1558 26.1738 13.0781V11.7207L29.1035 13.3483V16.7402H26.1738V14.5771C26.1738 14.4994 26.143 14.4249 26.088 14.37C26.0331 14.315 25.9586 14.2841 25.8809 14.2841C25.8032 14.2841 25.7286 14.315 25.6737 14.37C25.6188 14.4249 25.5879 14.4994 25.5879 14.5771V16.7402H25.187C25.1491 16.7404 25.1116 16.7482 25.0767 16.7631C25.0418 16.7781 25.0103 16.7998 24.9839 16.8271C24.9576 16.8544 24.937 16.8867 24.9233 16.9221C24.9096 16.9575 24.9032 16.9952 24.9043 17.0332V22.5996H24.6011C24.5631 22.5998 24.5256 22.6076 24.4908 22.6225C24.4559 22.6374 24.4243 22.6592 24.398 22.6865C24.3716 22.7138 24.351 22.7461 24.3374 22.7815C24.3237 22.8169 24.3172 22.8546 24.3184 22.8925V28.8007C24.3174 28.9669 24.3493 29.1315 24.4121 29.2853C24.4749 29.4391 24.5674 29.579 24.6844 29.6969C24.8014 29.8149 24.9406 29.9086 25.0938 29.9726C25.2471 30.0367 25.4115 30.0699 25.5776 30.0703ZM25.4902 17.3261H29.7871V22.5996H25.4902V17.3261ZM24.9043 23.1855H30.3731V28.8007C30.3705 28.983 30.2962 29.157 30.1664 29.2849C30.0365 29.4128 29.8615 29.4845 29.6792 29.4843H25.5776C25.4884 29.484 25.4002 29.4661 25.3179 29.4315C25.2357 29.3969 25.1611 29.3464 25.0985 29.2828C25.0359 29.2193 24.9866 29.144 24.9532 29.0612C24.9199 28.9785 24.9033 28.8899 24.9043 28.8007V23.1855Z" fill="white"/>
<path d="M28.7129 18.3516C28.6352 18.3516 28.5607 18.3824 28.5057 18.4374C28.4508 18.4923 28.4199 18.5668 28.4199 18.6445V21.4277C28.4199 21.5054 28.4508 21.58 28.5057 21.6349C28.5607 21.6898 28.6352 21.7207 28.7129 21.7207C28.7906 21.7207 28.8651 21.6898 28.9201 21.6349C28.975 21.58 29.0059 21.5054 29.0059 21.4277V18.6445C29.0059 18.5668 28.975 18.4923 28.9201 18.4374C28.8651 18.3824 28.7906 18.3516 28.7129 18.3516Z" fill="white"/>
<path d="M29.25 28.6055C29.3277 28.6055 29.4022 28.5746 29.4572 28.5197C29.5121 28.4647 29.543 28.3902 29.543 28.3125V24.4551C29.543 24.3774 29.5121 24.3029 29.4572 24.2479C29.4022 24.193 29.3277 24.1621 29.25 24.1621C29.1723 24.1621 29.0978 24.193 29.0428 24.2479C28.9879 24.3029 28.957 24.3774 28.957 24.4551V28.3125C28.957 28.3902 28.9879 28.4647 29.0428 28.5197C29.0978 28.5746 29.1723 28.6055 29.25 28.6055Z" fill="white"/>
</svg>
