<svg width="74" height="64" viewBox="0 0 74 64" fill="none" xmlns="http://www.w3.org/2000/svg">
<path d="M1.792 57.07C1.61467 57.07 1.47467 57.0187 1.372 56.916C1.26933 56.804 1.218 56.6593 1.218 56.482V47.69C1.218 47.522 1.26933 47.3867 1.372 47.284C1.484 47.1813 1.62867 47.13 1.806 47.13H5.124C6.16 47.13 6.96267 47.382 7.532 47.886C8.11067 48.39 8.4 49.104 8.4 50.028C8.4 50.952 8.11067 51.6707 7.532 52.184C6.95333 52.6973 6.15067 52.954 5.124 52.954H2.366V56.482C2.366 56.6593 2.31467 56.804 2.212 56.916C2.10933 57.0187 1.96933 57.07 1.792 57.07ZM5.012 52.002C6.51467 52.002 7.266 51.344 7.266 50.028C7.266 48.7307 6.51467 48.082 5.012 48.082H2.366V52.002H5.012ZM17.7317 51.862C17.8717 51.862 17.9837 51.904 18.0677 51.988C18.1611 52.072 18.2077 52.1887 18.2077 52.338V55.824C18.2077 56.048 18.1704 56.216 18.0957 56.328C18.0304 56.44 17.9044 56.5287 17.7177 56.594C17.3444 56.7527 16.8917 56.8787 16.3597 56.972C15.8277 57.0653 15.2957 57.112 14.7637 57.112C13.7837 57.112 12.9391 56.9113 12.2297 56.51C11.5204 56.1087 10.9744 55.53 10.5917 54.774C10.2184 54.018 10.0317 53.1127 10.0317 52.058C10.0317 51.022 10.2184 50.126 10.5917 49.37C10.9651 48.614 11.5017 48.0353 12.2017 47.634C12.9017 47.2233 13.7231 47.018 14.6657 47.018C15.3191 47.018 15.9257 47.1207 16.4857 47.326C17.0457 47.522 17.5171 47.8067 17.8997 48.18C18.0584 48.3387 18.1377 48.502 18.1377 48.67C18.1377 48.8007 18.1004 48.9173 18.0257 49.02C17.9511 49.1133 17.8577 49.16 17.7457 49.16C17.6337 49.16 17.5031 49.104 17.3537 48.992C16.8684 48.6187 16.4297 48.362 16.0377 48.222C15.6457 48.0727 15.1931 47.998 14.6797 47.998C13.5691 47.998 12.7151 48.348 12.1177 49.048C11.5297 49.748 11.2357 50.7513 11.2357 52.058C11.2357 53.3927 11.5344 54.41 12.1317 55.11C12.7384 55.8007 13.6251 56.146 14.7917 56.146C15.6597 56.146 16.4484 56.0153 17.1577 55.754V52.758H15.1137C14.9551 52.758 14.8291 52.716 14.7357 52.632C14.6424 52.548 14.5957 52.4407 14.5957 52.31C14.5957 52.17 14.6424 52.0627 14.7357 51.988C14.8291 51.904 14.9551 51.862 15.1137 51.862H17.7317ZM25.21 57.07C25.0326 57.07 24.8926 57.0187 24.79 56.916C24.6873 56.804 24.636 56.6593 24.636 56.482V47.69C24.636 47.522 24.6873 47.3867 24.79 47.284C24.902 47.1813 25.0466 47.13 25.224 47.13H30.32C30.488 47.13 30.6186 47.172 30.712 47.256C30.8053 47.34 30.852 47.4613 30.852 47.62C30.852 47.7693 30.8053 47.886 30.712 47.97C30.6186 48.054 30.488 48.096 30.32 48.096H25.77V51.498H30.04C30.208 51.498 30.3386 51.54 30.432 51.624C30.5253 51.708 30.572 51.8293 30.572 51.988C30.572 52.1373 30.5253 52.254 30.432 52.338C30.3386 52.422 30.208 52.464 30.04 52.464H25.77V56.482C25.77 56.6593 25.7186 56.804 25.616 56.916C25.5226 57.0187 25.3873 57.07 25.21 57.07ZM35.0919 50.014C36.7999 50.014 37.6539 50.91 37.6539 52.702V56.51C37.6539 56.678 37.6025 56.8133 37.4999 56.916C37.4065 57.0187 37.2759 57.07 37.1079 57.07C36.9399 57.07 36.8045 57.0187 36.7019 56.916C36.5992 56.8133 36.5479 56.678 36.5479 56.51V55.838C36.3705 56.2393 36.0999 56.552 35.7359 56.776C35.3719 56.9907 34.9519 57.098 34.4759 57.098C34.0372 57.098 33.6312 57.0093 33.2579 56.832C32.8939 56.6547 32.6045 56.4073 32.3899 56.09C32.1752 55.7727 32.0679 55.4227 32.0679 55.04C32.0679 54.5267 32.1985 54.13 32.4599 53.85C32.7212 53.5607 33.1505 53.3553 33.7479 53.234C34.3452 53.1033 35.1759 53.038 36.2399 53.038H36.5479V52.576C36.5479 52.016 36.4312 51.6053 36.1979 51.344C35.9739 51.0827 35.6052 50.952 35.0919 50.952C34.4572 50.952 33.8132 51.1247 33.1599 51.47C32.9079 51.6287 32.7305 51.708 32.6279 51.708C32.5159 51.708 32.4225 51.666 32.3479 51.582C32.2732 51.498 32.2359 51.3907 32.2359 51.26C32.2359 51.1293 32.2732 51.0173 32.3479 50.924C32.4319 50.8213 32.5625 50.7187 32.7399 50.616C33.0665 50.4293 33.4352 50.2847 33.8459 50.182C34.2659 50.07 34.6812 50.014 35.0919 50.014ZM34.6299 56.202C35.1899 56.202 35.6472 56.0153 36.0019 55.642C36.3659 55.2593 36.5479 54.7693 36.5479 54.172V53.766H36.2959C35.4745 53.766 34.8492 53.8033 34.4199 53.878C33.9905 53.9433 33.6825 54.06 33.4959 54.228C33.3185 54.3867 33.2299 54.6247 33.2299 54.942C33.2299 55.306 33.3605 55.6093 33.6219 55.852C33.8925 56.0853 34.2285 56.202 34.6299 56.202ZM42.2757 57.098C41.8464 57.098 41.4357 57.0467 41.0437 56.944C40.661 56.8413 40.3204 56.6967 40.0217 56.51C39.8537 56.398 39.7324 56.2953 39.6577 56.202C39.5924 56.0993 39.5597 55.978 39.5597 55.838C39.5597 55.7167 39.5924 55.6187 39.6577 55.544C39.7324 55.46 39.8257 55.418 39.9377 55.418C40.0497 55.418 40.213 55.488 40.4277 55.628C40.7077 55.796 40.983 55.9313 41.2537 56.034C41.5337 56.1273 41.879 56.174 42.2897 56.174C42.7937 56.174 43.1857 56.0853 43.4657 55.908C43.7457 55.7307 43.8857 55.474 43.8857 55.138C43.8857 54.9327 43.8344 54.7693 43.7317 54.648C43.629 54.5173 43.4517 54.4053 43.1997 54.312C42.9477 54.2093 42.579 54.1067 42.0937 54.004C41.2724 53.8267 40.6844 53.5887 40.3297 53.29C39.975 52.9913 39.7977 52.5853 39.7977 52.072C39.7977 51.6707 39.9097 51.316 40.1337 51.008C40.3577 50.7 40.6657 50.4573 41.0577 50.28C41.459 50.1027 41.9117 50.014 42.4157 50.014C42.7797 50.014 43.1297 50.0653 43.4657 50.168C43.811 50.2613 44.1144 50.3967 44.3757 50.574C44.693 50.798 44.8517 51.0313 44.8517 51.274C44.8517 51.3953 44.8144 51.498 44.7397 51.582C44.665 51.666 44.5764 51.708 44.4737 51.708C44.3617 51.708 44.1937 51.6287 43.9697 51.47C43.7084 51.302 43.461 51.1713 43.2277 51.078C42.9944 50.9847 42.705 50.938 42.3597 50.938C41.921 50.938 41.5664 51.036 41.2957 51.232C41.0344 51.428 40.9037 51.6893 40.9037 52.016C40.9037 52.2213 40.9504 52.3893 41.0437 52.52C41.1464 52.6413 41.3097 52.7533 41.5337 52.856C41.767 52.9493 42.0984 53.0427 42.5277 53.136C43.1624 53.276 43.6524 53.43 43.9977 53.598C44.3524 53.766 44.6044 53.9713 44.7537 54.214C44.903 54.4567 44.9777 54.7647 44.9777 55.138C44.9777 55.726 44.7304 56.202 44.2357 56.566C43.741 56.9207 43.0877 57.098 42.2757 57.098ZM50.4003 50.014C51.2029 50.014 51.8096 50.2427 52.2203 50.7C52.6309 51.148 52.8363 51.82 52.8363 52.716V56.51C52.8363 56.6873 52.7849 56.8273 52.6823 56.93C52.5796 57.0233 52.4443 57.07 52.2763 57.07C52.0989 57.07 51.9589 57.0233 51.8563 56.93C51.7536 56.8273 51.7023 56.6873 51.7023 56.51V52.744C51.7023 52.1373 51.5763 51.6893 51.3243 51.4C51.0816 51.1107 50.6896 50.966 50.1483 50.966C49.5229 50.966 49.0236 51.1573 48.6503 51.54C48.2769 51.9227 48.0903 52.4407 48.0903 53.094V56.51C48.0903 56.6873 48.0389 56.8273 47.9363 56.93C47.8429 57.0233 47.7076 57.07 47.5303 57.07C47.3529 57.07 47.2129 57.0233 47.1103 56.93C47.0076 56.8273 46.9563 56.6873 46.9563 56.51V47.606C46.9563 47.4473 47.0076 47.3167 47.1103 47.214C47.2223 47.1113 47.3623 47.06 47.5303 47.06C47.7076 47.06 47.8429 47.1113 47.9363 47.214C48.0389 47.3073 48.0903 47.438 48.0903 47.606V51.274C48.3143 50.8633 48.6269 50.5507 49.0283 50.336C49.4296 50.1213 49.8869 50.014 50.4003 50.014ZM55.7373 57.07C55.5693 57.07 55.4293 57.0233 55.3173 56.93C55.2146 56.8273 55.1633 56.6873 55.1633 56.51V50.602C55.1633 50.4247 55.2146 50.2893 55.3173 50.196C55.4293 50.0933 55.5693 50.042 55.7373 50.042C55.9053 50.042 56.0406 50.0933 56.1433 50.196C56.2459 50.2893 56.2973 50.4247 56.2973 50.602V56.51C56.2973 56.6967 56.2459 56.8367 56.1433 56.93C56.0406 57.0233 55.9053 57.07 55.7373 57.07ZM55.7373 48.572C55.5133 48.572 55.3313 48.5067 55.1913 48.376C55.0513 48.2453 54.9813 48.0727 54.9813 47.858C54.9813 47.6527 55.0513 47.4847 55.1913 47.354C55.3313 47.2233 55.5133 47.158 55.7373 47.158C55.9613 47.158 56.1433 47.2233 56.2833 47.354C56.4233 47.4847 56.4933 47.6527 56.4933 47.858C56.4933 48.0727 56.4233 48.2453 56.2833 48.376C56.1433 48.5067 55.9613 48.572 55.7373 48.572ZM61.4952 57.098C60.8512 57.098 60.2819 56.9533 59.7872 56.664C59.3019 56.3747 58.9239 55.964 58.6532 55.432C58.3919 54.8907 58.2612 54.2653 58.2612 53.556C58.2612 52.8467 58.3919 52.226 58.6532 51.694C58.9239 51.1527 59.3019 50.7373 59.7872 50.448C60.2819 50.1587 60.8512 50.014 61.4952 50.014C62.1392 50.014 62.7085 50.1587 63.2032 50.448C63.6979 50.7373 64.0759 51.1527 64.3372 51.694C64.6079 52.226 64.7432 52.8467 64.7432 53.556C64.7432 54.2653 64.6079 54.8907 64.3372 55.432C64.0759 55.964 63.6979 56.3747 63.2032 56.664C62.7085 56.9533 62.1392 57.098 61.4952 57.098ZM61.4952 56.16C62.1672 56.16 62.6805 55.9407 63.0352 55.502C63.3992 55.054 63.5812 54.4053 63.5812 53.556C63.5812 52.7253 63.3992 52.086 63.0352 51.638C62.6712 51.1807 62.1579 50.952 61.4952 50.952C60.8325 50.952 60.3192 51.1807 59.9552 51.638C59.5912 52.086 59.4092 52.7253 59.4092 53.556C59.4092 54.396 59.5865 55.04 59.9412 55.488C60.3052 55.936 60.8232 56.16 61.4952 56.16ZM70.1128 50.014C71.7461 50.014 72.5628 50.9147 72.5628 52.716V56.51C72.5628 56.6873 72.5115 56.8273 72.4088 56.93C72.3155 57.0233 72.1801 57.07 72.0028 57.07C71.8255 57.07 71.6855 57.0233 71.5828 56.93C71.4801 56.8273 71.4288 56.6873 71.4288 56.51V52.786C71.4288 52.1513 71.3028 51.6893 71.0508 51.4C70.8081 51.1107 70.4161 50.966 69.8748 50.966C69.2495 50.966 68.7501 51.1573 68.3768 51.54C68.0035 51.9227 67.8168 52.4407 67.8168 53.094V56.51C67.8168 56.6873 67.7655 56.8273 67.6628 56.93C67.5695 57.0233 67.4341 57.07 67.2568 57.07C67.0795 57.07 66.9395 57.0233 66.8368 56.93C66.7341 56.8273 66.6828 56.6873 66.6828 56.51V50.602C66.6828 50.434 66.7341 50.2987 66.8368 50.196C66.9395 50.0933 67.0795 50.042 67.2568 50.042C67.4248 50.042 67.5555 50.0933 67.6488 50.196C67.7515 50.2987 67.8028 50.4293 67.8028 50.588V51.302C68.0268 50.882 68.3395 50.5647 68.7408 50.35C69.1421 50.126 69.5995 50.014 70.1128 50.014Z" fill="#2E3E4E"/>
<circle cx="37" cy="20" r="20" fill="#BE1E2D"/>
<path d="M47.8568 14.2095L43.4231 10.7988C43.1665 10.6013 42.8748 10.4543 42.5634 10.3656L40.492 9.77368L39.8259 9.10766C39.7025 8.98374 39.5087 8.96454 39.3633 9.06182C38.649 9.49125 37.8334 9.72306 37 9.73355C36.167 9.72057 35.352 9.48893 34.6367 9.06182C34.4914 8.96471 34.2976 8.98391 34.1741 9.10766L33.5081 9.77368L31.4366 10.3656C31.1252 10.4543 30.8335 10.6013 30.5769 10.7988L26.1432 14.2095C25.9903 14.3271 25.9546 14.5431 26.0616 14.7036L28.9949 19.1036C29.0519 19.1892 29.1422 19.2469 29.2438 19.2626C29.3453 19.278 29.4487 19.2505 29.5292 19.1867L30.7667 18.1966V30.2669C30.7667 30.3642 30.8052 30.4575 30.874 30.5263C30.9428 30.595 31.0361 30.6336 31.1334 30.6336H42.8667C42.964 30.6336 43.0573 30.595 43.126 30.5263C43.1948 30.4575 43.2334 30.3642 43.2334 30.2669V18.1966L44.4709 19.1867C44.5512 19.2509 44.6547 19.2784 44.7563 19.2627C44.8578 19.2468 44.9481 19.1892 45.0051 19.1037L47.9385 14.7037C48.0454 14.5431 48.0097 14.3271 47.8568 14.2095ZM42.5 29.9003H37H31.5V29.1669H42.5V29.9003ZM44.6169 18.3642L43.9161 17.8034L45.7384 15.0703C45.8496 14.9019 45.8037 14.6753 45.6358 14.5633C45.4679 14.4514 45.241 14.4961 45.1283 14.6635L43.3414 17.3436L43.0959 17.1471C42.9858 17.0591 42.8349 17.0419 42.7079 17.103C42.5808 17.1641 42.5 17.2926 42.5 17.4336V28.4336H31.5V17.4336C31.5 17.2926 31.4192 17.1641 31.2922 17.103C31.1651 17.0419 31.0143 17.0591 30.9042 17.1472L30.6586 17.3436L28.8717 14.6636C28.7586 14.4973 28.5326 14.4533 28.3653 14.5648C28.1979 14.6764 28.1517 14.9019 28.2616 15.0703L30.084 17.8034L29.3831 18.3642L26.8619 14.5819L31.0238 11.3804C31.2071 11.2393 31.4155 11.1343 31.6379 11.071L33.8007 10.453C33.8606 10.4358 33.9152 10.4036 33.9593 10.3595L34.4932 9.82563C35.2655 10.2368 36.1252 10.4567 37.0001 10.4669C37.8749 10.4567 38.7346 10.2368 39.5069 9.82563L40.0408 10.3595C40.0849 10.4036 40.1395 10.4358 40.1995 10.453L42.3622 11.071C42.5847 11.1343 42.7931 11.2393 42.9763 11.3804L47.1382 14.5819L44.6169 18.3642Z" fill="white"/>
</svg>
