<svg width="98" height="64" viewBox="0 0 98 64" fill="none" xmlns="http://www.w3.org/2000/svg">
<path d="M1.792 57.07C1.61467 57.07 1.47467 57.0187 1.372 56.916C1.26933 56.804 1.218 56.6593 1.218 56.482V47.69C1.218 47.522 1.26933 47.3867 1.372 47.284C1.484 47.1813 1.62867 47.13 1.806 47.13H5.124C6.16 47.13 6.96267 47.382 7.532 47.886C8.11067 48.39 8.4 49.104 8.4 50.028C8.4 50.952 8.11067 51.6707 7.532 52.184C6.95333 52.6973 6.15067 52.954 5.124 52.954H2.366V56.482C2.366 56.6593 2.31467 56.804 2.212 56.916C2.10933 57.0187 1.96933 57.07 1.792 57.07ZM5.012 52.002C6.51467 52.002 7.266 51.344 7.266 50.028C7.266 48.7307 6.51467 48.082 5.012 48.082H2.366V52.002H5.012ZM17.7317 51.862C17.8717 51.862 17.9837 51.904 18.0677 51.988C18.1611 52.072 18.2077 52.1887 18.2077 52.338V55.824C18.2077 56.048 18.1704 56.216 18.0957 56.328C18.0304 56.44 17.9044 56.5287 17.7177 56.594C17.3444 56.7527 16.8917 56.8787 16.3597 56.972C15.8277 57.0653 15.2957 57.112 14.7637 57.112C13.7837 57.112 12.9391 56.9113 12.2297 56.51C11.5204 56.1087 10.9744 55.53 10.5917 54.774C10.2184 54.018 10.0317 53.1127 10.0317 52.058C10.0317 51.022 10.2184 50.126 10.5917 49.37C10.9651 48.614 11.5017 48.0353 12.2017 47.634C12.9017 47.2233 13.7231 47.018 14.6657 47.018C15.3191 47.018 15.9257 47.1207 16.4857 47.326C17.0457 47.522 17.5171 47.8067 17.8997 48.18C18.0584 48.3387 18.1377 48.502 18.1377 48.67C18.1377 48.8007 18.1004 48.9173 18.0257 49.02C17.9511 49.1133 17.8577 49.16 17.7457 49.16C17.6337 49.16 17.5031 49.104 17.3537 48.992C16.8684 48.6187 16.4297 48.362 16.0377 48.222C15.6457 48.0727 15.1931 47.998 14.6797 47.998C13.5691 47.998 12.7151 48.348 12.1177 49.048C11.5297 49.748 11.2357 50.7513 11.2357 52.058C11.2357 53.3927 11.5344 54.41 12.1317 55.11C12.7384 55.8007 13.6251 56.146 14.7917 56.146C15.6597 56.146 16.4484 56.0153 17.1577 55.754V52.758H15.1137C14.9551 52.758 14.8291 52.716 14.7357 52.632C14.6424 52.548 14.5957 52.4407 14.5957 52.31C14.5957 52.17 14.6424 52.0627 14.7357 51.988C14.8291 51.904 14.9551 51.862 15.1137 51.862H17.7317ZM30.236 51.932C30.8053 52.0813 31.244 52.3613 31.552 52.772C31.8693 53.1827 32.028 53.696 32.028 54.312C32.028 55.18 31.7433 55.8473 31.174 56.314C30.6046 56.7713 29.7973 57 28.752 57H25.224C25.0466 57 24.902 56.9487 24.79 56.846C24.6873 56.7433 24.636 56.608 24.636 56.44V47.69C24.636 47.522 24.6873 47.3867 24.79 47.284C24.902 47.1813 25.0466 47.13 25.224 47.13H28.598C29.6153 47.13 30.404 47.354 30.964 47.802C31.524 48.25 31.804 48.8847 31.804 49.706C31.804 50.238 31.664 50.6953 31.384 51.078C31.1133 51.4607 30.7306 51.7453 30.236 51.932ZM25.77 51.512H28.43C29.1673 51.512 29.7226 51.3627 30.096 51.064C30.4786 50.7653 30.67 50.3313 30.67 49.762C30.67 48.642 29.9233 48.082 28.43 48.082H25.77V51.512ZM28.64 56.048C29.4146 56.048 29.984 55.908 30.348 55.628C30.7213 55.3387 30.908 54.8907 30.908 54.284C30.908 53.0707 30.152 52.464 28.64 52.464H25.77V56.048H28.64ZM39.4296 55.418C39.5322 55.418 39.6209 55.46 39.6956 55.544C39.7702 55.628 39.8076 55.7353 39.8076 55.866C39.8076 56.0993 39.6442 56.314 39.3176 56.51C38.9816 56.706 38.6269 56.8553 38.2536 56.958C37.8802 57.0513 37.5162 57.098 37.1616 57.098C36.1069 57.098 35.2716 56.7853 34.6556 56.16C34.0489 55.5347 33.7456 54.6713 33.7456 53.57C33.7456 52.87 33.8809 52.254 34.1516 51.722C34.4222 51.1807 34.8002 50.7607 35.2856 50.462C35.7802 50.1633 36.3402 50.014 36.9656 50.014C37.8522 50.014 38.5569 50.3033 39.0796 50.882C39.6022 51.4607 39.8636 52.2447 39.8636 53.234C39.8636 53.4207 39.8262 53.556 39.7516 53.64C39.6769 53.724 39.5556 53.766 39.3876 53.766H34.8796C34.9636 55.3713 35.7242 56.174 37.1616 56.174C37.5256 56.174 37.8382 56.1273 38.0996 56.034C38.3609 55.9313 38.6409 55.796 38.9396 55.628C39.1822 55.488 39.3456 55.418 39.4296 55.418ZM36.9796 50.896C36.3822 50.896 35.9016 51.0827 35.5376 51.456C35.1829 51.8293 34.9729 52.3567 34.9076 53.038H38.8696C38.8509 52.3473 38.6782 51.82 38.3516 51.456C38.0249 51.0827 37.5676 50.896 36.9796 50.896ZM44.5704 50.014C46.2784 50.014 47.1324 50.91 47.1324 52.702V56.51C47.1324 56.678 47.081 56.8133 46.9784 56.916C46.885 57.0187 46.7544 57.07 46.5864 57.07C46.4184 57.07 46.283 57.0187 46.1804 56.916C46.0777 56.8133 46.0264 56.678 46.0264 56.51V55.838C45.849 56.2393 45.5784 56.552 45.2144 56.776C44.8504 56.9907 44.4304 57.098 43.9544 57.098C43.5157 57.098 43.1097 57.0093 42.7364 56.832C42.3724 56.6547 42.083 56.4073 41.8684 56.09C41.6537 55.7727 41.5464 55.4227 41.5464 55.04C41.5464 54.5267 41.677 54.13 41.9384 53.85C42.1997 53.5607 42.629 53.3553 43.2264 53.234C43.8237 53.1033 44.6544 53.038 45.7184 53.038H46.0264V52.576C46.0264 52.016 45.9097 51.6053 45.6764 51.344C45.4524 51.0827 45.0837 50.952 44.5704 50.952C43.9357 50.952 43.2917 51.1247 42.6384 51.47C42.3864 51.6287 42.209 51.708 42.1064 51.708C41.9944 51.708 41.901 51.666 41.8264 51.582C41.7517 51.498 41.7144 51.3907 41.7144 51.26C41.7144 51.1293 41.7517 51.0173 41.8264 50.924C41.9104 50.8213 42.041 50.7187 42.2184 50.616C42.545 50.4293 42.9137 50.2847 43.3244 50.182C43.7444 50.07 44.1597 50.014 44.5704 50.014ZM44.1084 56.202C44.6684 56.202 45.1257 56.0153 45.4804 55.642C45.8444 55.2593 46.0264 54.7693 46.0264 54.172V53.766H45.7744C44.953 53.766 44.3277 53.8033 43.8984 53.878C43.469 53.9433 43.161 54.06 42.9744 54.228C42.797 54.3867 42.7084 54.6247 42.7084 54.942C42.7084 55.306 42.839 55.6093 43.1004 55.852C43.371 56.0853 43.707 56.202 44.1084 56.202ZM54.6382 50.042C54.8155 50.042 54.9509 50.0933 55.0442 50.196C55.1469 50.2987 55.1982 50.434 55.1982 50.602V56.524C55.1982 56.6827 55.1469 56.8133 55.0442 56.916C54.9509 57.0187 54.8155 57.07 54.6382 57.07C54.4702 57.07 54.3349 57.0233 54.2322 56.93C54.1389 56.8273 54.0922 56.6967 54.0922 56.538V55.838C53.8775 56.2487 53.5742 56.5613 53.1822 56.776C52.7995 56.9907 52.3655 57.098 51.8802 57.098C51.0682 57.098 50.4569 56.874 50.0462 56.426C49.6355 55.9687 49.4302 55.2967 49.4302 54.41V50.602C49.4302 50.434 49.4815 50.2987 49.5842 50.196C49.6869 50.0933 49.8269 50.042 50.0042 50.042C50.1815 50.042 50.3169 50.0933 50.4102 50.196C50.5129 50.2987 50.5642 50.434 50.5642 50.602V54.382C50.5642 54.9887 50.6855 55.4367 50.9282 55.726C51.1709 56.006 51.5535 56.146 52.0762 56.146C52.6735 56.146 53.1542 55.9547 53.5182 55.572C53.8822 55.18 54.0642 54.6667 54.0642 54.032V50.602C54.0642 50.434 54.1155 50.2987 54.2182 50.196C54.3209 50.0933 54.4609 50.042 54.6382 50.042ZM60.7059 56.174C61.0325 56.202 61.1959 56.3513 61.1959 56.622C61.1959 56.7807 61.1352 56.902 61.0139 56.986C60.9019 57.0607 60.7292 57.0887 60.4959 57.07L60.1179 57.042C59.3712 56.986 58.8205 56.762 58.4659 56.37C58.1112 55.978 57.9339 55.3853 57.9339 54.592V51.078H56.9959C56.8372 51.078 56.7112 51.0407 56.6179 50.966C56.5339 50.882 56.4919 50.7747 56.4919 50.644C56.4919 50.504 56.5339 50.392 56.6179 50.308C56.7112 50.224 56.8372 50.182 56.9959 50.182H57.9339V48.6C57.9339 48.4227 57.9852 48.2873 58.0879 48.194C58.1905 48.0913 58.3305 48.04 58.5079 48.04C58.6759 48.04 58.8112 48.0913 58.9139 48.194C59.0165 48.2873 59.0679 48.4227 59.0679 48.6V50.182H60.6219C60.7712 50.182 60.8879 50.224 60.9719 50.308C61.0652 50.392 61.1119 50.504 61.1119 50.644C61.1119 50.7747 61.0652 50.882 60.9719 50.966C60.8879 51.0407 60.7712 51.078 60.6219 51.078H59.0679V54.648C59.0679 55.1613 59.1705 55.5347 59.3759 55.768C59.5905 55.992 59.9079 56.118 60.3279 56.146L60.7059 56.174ZM67.5597 50.392C67.6624 50.168 67.8257 50.056 68.0497 50.056C68.1897 50.056 68.3157 50.1027 68.4277 50.196C68.5397 50.2893 68.5957 50.406 68.5957 50.546C68.5957 50.63 68.577 50.7047 68.5397 50.77L64.6057 59.254C64.559 59.3567 64.489 59.436 64.3957 59.492C64.3117 59.548 64.223 59.576 64.1297 59.576C63.9897 59.576 63.8637 59.5293 63.7517 59.436C63.649 59.352 63.5977 59.24 63.5977 59.1C63.5977 59.0253 63.6164 58.9507 63.6537 58.876L64.6337 56.762L61.8617 50.77C61.8244 50.7047 61.8057 50.6347 61.8057 50.56C61.8057 50.42 61.8664 50.2987 61.9877 50.196C62.1184 50.0933 62.2584 50.042 62.4077 50.042C62.501 50.042 62.5897 50.07 62.6737 50.126C62.767 50.182 62.837 50.2613 62.8837 50.364L65.2217 55.614L67.5597 50.392ZM77.0965 56.174C77.4232 56.202 77.5865 56.3513 77.5865 56.622C77.5865 56.7807 77.5258 56.902 77.4045 56.986C77.2925 57.0607 77.1198 57.0887 76.8865 57.07L76.5085 57.042C75.7618 56.986 75.2112 56.762 74.8565 56.37C74.5018 55.978 74.3245 55.3853 74.3245 54.592V51.078H73.3865C73.2278 51.078 73.1018 51.0407 73.0085 50.966C72.9245 50.882 72.8825 50.7747 72.8825 50.644C72.8825 50.504 72.9245 50.392 73.0085 50.308C73.1018 50.224 73.2278 50.182 73.3865 50.182H74.3245V48.6C74.3245 48.4227 74.3758 48.2873 74.4785 48.194C74.5812 48.0913 74.7212 48.04 74.8985 48.04C75.0665 48.04 75.2018 48.0913 75.3045 48.194C75.4072 48.2873 75.4585 48.4227 75.4585 48.6V50.182H77.0125C77.1618 50.182 77.2785 50.224 77.3625 50.308C77.4558 50.392 77.5025 50.504 77.5025 50.644C77.5025 50.7747 77.4558 50.882 77.3625 50.966C77.2785 51.0407 77.1618 51.078 77.0125 51.078H75.4585V54.648C75.4585 55.1613 75.5612 55.5347 75.7665 55.768C75.9812 55.992 76.2985 56.118 76.7185 56.146L77.0965 56.174ZM81.7823 57.098C81.1383 57.098 80.569 56.9533 80.0743 56.664C79.589 56.3747 79.211 55.964 78.9403 55.432C78.679 54.8907 78.5483 54.2653 78.5483 53.556C78.5483 52.8467 78.679 52.226 78.9403 51.694C79.211 51.1527 79.589 50.7373 80.0743 50.448C80.569 50.1587 81.1383 50.014 81.7823 50.014C82.4263 50.014 82.9956 50.1587 83.4903 50.448C83.985 50.7373 84.363 51.1527 84.6243 51.694C84.895 52.226 85.0303 52.8467 85.0303 53.556C85.0303 54.2653 84.895 54.8907 84.6243 55.432C84.363 55.964 83.985 56.3747 83.4903 56.664C82.9956 56.9533 82.4263 57.098 81.7823 57.098ZM81.7823 56.16C82.4543 56.16 82.9676 55.9407 83.3223 55.502C83.6863 55.054 83.8683 54.4053 83.8683 53.556C83.8683 52.7253 83.6863 52.086 83.3223 51.638C82.9583 51.1807 82.445 50.952 81.7823 50.952C81.1196 50.952 80.6063 51.1807 80.2423 51.638C79.8783 52.086 79.6963 52.7253 79.6963 53.556C79.6963 54.396 79.8736 55.04 80.2283 55.488C80.5923 55.936 81.1103 56.16 81.7823 56.16ZM89.7979 57.098C89.1539 57.098 88.5846 56.9533 88.0899 56.664C87.6046 56.3747 87.2266 55.964 86.9559 55.432C86.6946 54.8907 86.5639 54.2653 86.5639 53.556C86.5639 52.8467 86.6946 52.226 86.9559 51.694C87.2266 51.1527 87.6046 50.7373 88.0899 50.448C88.5846 50.1587 89.1539 50.014 89.7979 50.014C90.4419 50.014 91.0113 50.1587 91.5059 50.448C92.0006 50.7373 92.3786 51.1527 92.6399 51.694C92.9106 52.226 93.0459 52.8467 93.0459 53.556C93.0459 54.2653 92.9106 54.8907 92.6399 55.432C92.3786 55.964 92.0006 56.3747 91.5059 56.664C91.0113 56.9533 90.4419 57.098 89.7979 57.098ZM89.7979 56.16C90.4699 56.16 90.9833 55.9407 91.3379 55.502C91.7019 55.054 91.8839 54.4053 91.8839 53.556C91.8839 52.7253 91.7019 52.086 91.3379 51.638C90.9739 51.1807 90.4606 50.952 89.7979 50.952C89.1353 50.952 88.6219 51.1807 88.2579 51.638C87.8939 52.086 87.7119 52.7253 87.7119 53.556C87.7119 54.396 87.8893 55.04 88.2439 55.488C88.6079 55.936 89.1259 56.16 89.7979 56.16ZM95.5595 57.07C95.3915 57.07 95.2515 57.0233 95.1395 56.93C95.0369 56.8273 94.9855 56.6873 94.9855 56.51V47.62C94.9855 47.4427 95.0369 47.3073 95.1395 47.214C95.2515 47.1113 95.3915 47.06 95.5595 47.06C95.7182 47.06 95.8489 47.1113 95.9515 47.214C96.0635 47.3073 96.1195 47.4427 96.1195 47.62V56.51C96.1195 56.6873 96.0635 56.8273 95.9515 56.93C95.8489 57.0233 95.7182 57.07 95.5595 57.07Z" fill="#2E3E4E"/>
<circle cx="49" cy="20" r="20" fill="#BE1E2D"/>
</svg>
