<svg width="16" height="13" viewBox="0 0 16 13" fill="none" xmlns="http://www.w3.org/2000/svg">
<path d="M14.1666 13H1.83325C0.821899 13 0 12.3835 0 11.6251V4.37495C0 3.61643 0.821899 3 1.83325 3H4.16663C4.44263 3 4.66663 3.168 4.66663 3.375C4.66663 3.582 4.44263 3.75 4.16663 3.75H1.83325C1.3739 3.75 1 4.03043 1 4.37495V11.6251C1 11.9695 1.3739 12.25 1.83325 12.25H14.1666C14.626 12.25 15 11.9695 15 11.6251V7.37497C15 7.16796 15.224 6.99996 15.5 6.99996C15.776 6.99996 16 7.16796 16 7.37497V11.6251C16 12.3835 15.178 13 14.1666 13Z" fill="#6C7783"/>
<path d="M4.49926 10.6581C4.46264 10.6581 4.4259 10.6541 4.38928 10.6447C4.16333 10.5921 4 10.3987 4 10.1668V9.16678C4 5.58283 6.91599 2.66684 10.4999 2.66684H10.6666V0.500118C10.6666 0.29614 10.7906 0.112793 10.9799 0.0361333C11.1685 -0.0397937 11.3852 0.00610426 11.5265 0.153442L15.8599 4.6534C16.0465 4.84675 16.0465 5.15339 15.8599 5.34675L11.5265 9.8467C11.3852 9.99404 11.1672 10.0395 10.9799 9.96401C10.7906 9.88735 10.6666 9.70401 10.6666 9.50003V7.33342H9.87458C7.77731 7.33342 5.89256 8.4987 4.95531 10.374C4.86925 10.5474 4.68859 10.6581 4.49926 10.6581ZM10.4999 3.66683C7.69991 3.66683 5.38133 5.77009 5.04198 8.48002C6.25388 7.1281 7.9919 6.33343 9.87458 6.33343H11.1666C11.4426 6.33343 11.6666 6.55743 11.6666 6.83343V8.26005L14.8058 5.00007L11.6666 1.7401V3.16684C11.6666 3.44284 11.4426 3.66683 11.1666 3.66683H10.4999Z" fill="#6C7783"/>
</svg>
